<mxfile host="Electron" modified="2024-02-24T10:13:14.901Z" agent="Mozilla/5.0 (Windows NT 10.0; Win64; x64) AppleWebKit/537.36 (KHTML, like Gecko) draw.io/23.1.5 Chrome/120.0.6099.109 Electron/28.1.0 Safari/537.36" etag="9cvJ2DMOzCs4-foDWhhK" version="23.1.5" type="device">
  <diagram name="Page-1" id="9MuVnaOxP12XVc0lbXw3">
    <mxGraphModel dx="1493" dy="1018" grid="1" gridSize="10" guides="1" tooltips="1" connect="1" arrows="1" fold="1" page="1" pageScale="1" pageWidth="827" pageHeight="1169" math="0" shadow="0">
      <root>
        <mxCell id="0" />
        <mxCell id="1" parent="0" />
        <mxCell id="MBzvzFQcyCSPUHUW8U1s-2" value="" style="rounded=0;whiteSpace=wrap;html=1;fillColor=#d5e8d4;strokeColor=#82b366;" vertex="1" parent="1">
          <mxGeometry x="200" y="40" width="500" height="1370" as="geometry" />
        </mxCell>
        <mxCell id="MBzvzFQcyCSPUHUW8U1s-3" value="Admin" style="shape=umlActor;verticalLabelPosition=bottom;verticalAlign=top;html=1;outlineConnect=0;" vertex="1" parent="1">
          <mxGeometry x="60" y="250" width="60" height="110" as="geometry" />
        </mxCell>
        <mxCell id="MBzvzFQcyCSPUHUW8U1s-4" value="Véto" style="shape=umlActor;verticalLabelPosition=bottom;verticalAlign=top;html=1;outlineConnect=0;" vertex="1" parent="1">
          <mxGeometry x="70" y="670" width="60" height="110" as="geometry" />
        </mxCell>
        <mxCell id="MBzvzFQcyCSPUHUW8U1s-5" value="Employer" style="shape=umlActor;verticalLabelPosition=bottom;verticalAlign=top;html=1;outlineConnect=0;" vertex="1" parent="1">
          <mxGeometry x="70" y="890" width="60" height="110" as="geometry" />
        </mxCell>
        <mxCell id="MBzvzFQcyCSPUHUW8U1s-6" value="Visiteur" style="shape=umlActor;verticalLabelPosition=bottom;verticalAlign=top;html=1;outlineConnect=0;" vertex="1" parent="1">
          <mxGeometry x="70" y="1100" width="60" height="110" as="geometry" />
        </mxCell>
        <mxCell id="MBzvzFQcyCSPUHUW8U1s-7" value="&lt;font style=&quot;font-size: 20px;&quot;&gt;Arcadia&lt;/font&gt;" style="text;html=1;align=center;verticalAlign=middle;whiteSpace=wrap;rounded=0;" vertex="1" parent="1">
          <mxGeometry x="400" y="40" width="100" height="30" as="geometry" />
        </mxCell>
        <mxCell id="MBzvzFQcyCSPUHUW8U1s-8" value="Ajouter Modifier Supprimer Les comptes employer et vétérinaire" style="ellipse;whiteSpace=wrap;html=1;fillColor=#d5e8d4;strokeColor=#82b366;gradientColor=#97d077;" vertex="1" parent="1">
          <mxGeometry x="300" y="80" width="180" height="70" as="geometry" />
        </mxCell>
        <mxCell id="MBzvzFQcyCSPUHUW8U1s-9" value="Ajouter Modifier Supprimer Les différents services" style="ellipse;whiteSpace=wrap;html=1;fillColor=#d5e8d4;strokeColor=#82b366;gradientColor=#97d077;" vertex="1" parent="1">
          <mxGeometry x="300" y="160" width="170" height="60" as="geometry" />
        </mxCell>
        <mxCell id="MBzvzFQcyCSPUHUW8U1s-10" value="Ajouter Modifier Supprimer Les horaires" style="ellipse;whiteSpace=wrap;html=1;fillColor=#d5e8d4;strokeColor=#82b366;gradientColor=#97d077;" vertex="1" parent="1">
          <mxGeometry x="300" y="230" width="170" height="60" as="geometry" />
        </mxCell>
        <mxCell id="MBzvzFQcyCSPUHUW8U1s-11" value="Ajouter Modifier Supprimer Les différents animaux" style="ellipse;whiteSpace=wrap;html=1;fillColor=#d5e8d4;strokeColor=#82b366;gradientColor=#97d077;" vertex="1" parent="1">
          <mxGeometry x="300" y="300" width="170" height="60" as="geometry" />
        </mxCell>
        <mxCell id="MBzvzFQcyCSPUHUW8U1s-15" value="" style="endArrow=none;html=1;rounded=0;exitX=1;exitY=0.3333333333333333;exitDx=0;exitDy=0;exitPerimeter=0;entryX=0;entryY=0.5;entryDx=0;entryDy=0;" edge="1" parent="1" source="MBzvzFQcyCSPUHUW8U1s-3" target="MBzvzFQcyCSPUHUW8U1s-8">
          <mxGeometry width="50" height="50" relative="1" as="geometry">
            <mxPoint x="170" y="200" as="sourcePoint" />
            <mxPoint x="220" y="150" as="targetPoint" />
          </mxGeometry>
        </mxCell>
        <mxCell id="MBzvzFQcyCSPUHUW8U1s-16" value="" style="endArrow=none;html=1;rounded=0;exitX=1;exitY=0.3333333333333333;exitDx=0;exitDy=0;exitPerimeter=0;entryX=0;entryY=0.5;entryDx=0;entryDy=0;" edge="1" parent="1" source="MBzvzFQcyCSPUHUW8U1s-3" target="MBzvzFQcyCSPUHUW8U1s-9">
          <mxGeometry width="50" height="50" relative="1" as="geometry">
            <mxPoint x="130" y="230" as="sourcePoint" />
            <mxPoint x="260" y="193" as="targetPoint" />
          </mxGeometry>
        </mxCell>
        <mxCell id="MBzvzFQcyCSPUHUW8U1s-17" value="" style="endArrow=none;html=1;rounded=0;exitX=1;exitY=0.3333333333333333;exitDx=0;exitDy=0;exitPerimeter=0;entryX=0;entryY=0.5;entryDx=0;entryDy=0;" edge="1" parent="1" source="MBzvzFQcyCSPUHUW8U1s-3" target="MBzvzFQcyCSPUHUW8U1s-10">
          <mxGeometry width="50" height="50" relative="1" as="geometry">
            <mxPoint x="150" y="193.5" as="sourcePoint" />
            <mxPoint x="280" y="156.5" as="targetPoint" />
          </mxGeometry>
        </mxCell>
        <mxCell id="MBzvzFQcyCSPUHUW8U1s-18" value="" style="endArrow=none;html=1;rounded=0;exitX=1;exitY=0.3333333333333333;exitDx=0;exitDy=0;exitPerimeter=0;entryX=0.056;entryY=0.283;entryDx=0;entryDy=0;entryPerimeter=0;" edge="1" parent="1" source="MBzvzFQcyCSPUHUW8U1s-3" target="MBzvzFQcyCSPUHUW8U1s-11">
          <mxGeometry width="50" height="50" relative="1" as="geometry">
            <mxPoint x="160" y="187" as="sourcePoint" />
            <mxPoint x="290" y="150" as="targetPoint" />
          </mxGeometry>
        </mxCell>
        <mxCell id="MBzvzFQcyCSPUHUW8U1s-19" value="Consulter le nombre de consultation par animal" style="ellipse;whiteSpace=wrap;html=1;fillColor=#d5e8d4;strokeColor=#82b366;gradientColor=#97d077;" vertex="1" parent="1">
          <mxGeometry x="300" y="440" width="170" height="60" as="geometry" />
        </mxCell>
        <mxCell id="MBzvzFQcyCSPUHUW8U1s-20" value="Ajouter Modifier Supprimer les habitats animaux" style="ellipse;whiteSpace=wrap;html=1;fillColor=#d5e8d4;strokeColor=#82b366;gradientColor=#97d077;" vertex="1" parent="1">
          <mxGeometry x="300" y="370" width="170" height="60" as="geometry" />
        </mxCell>
        <mxCell id="MBzvzFQcyCSPUHUW8U1s-21" value="" style="endArrow=none;html=1;rounded=0;exitX=1;exitY=0.3333333333333333;exitDx=0;exitDy=0;exitPerimeter=0;entryX=0;entryY=0.5;entryDx=0;entryDy=0;" edge="1" parent="1" source="MBzvzFQcyCSPUHUW8U1s-3" target="MBzvzFQcyCSPUHUW8U1s-20">
          <mxGeometry width="50" height="50" relative="1" as="geometry">
            <mxPoint x="120" y="330" as="sourcePoint" />
            <mxPoint x="270" y="360" as="targetPoint" />
          </mxGeometry>
        </mxCell>
        <mxCell id="MBzvzFQcyCSPUHUW8U1s-22" value="" style="endArrow=none;html=1;rounded=0;exitX=1;exitY=0.3333333333333333;exitDx=0;exitDy=0;exitPerimeter=0;entryX=0;entryY=0.5;entryDx=0;entryDy=0;" edge="1" parent="1" source="MBzvzFQcyCSPUHUW8U1s-3" target="MBzvzFQcyCSPUHUW8U1s-19">
          <mxGeometry width="50" height="50" relative="1" as="geometry">
            <mxPoint x="140" y="307" as="sourcePoint" />
            <mxPoint x="290" y="337" as="targetPoint" />
          </mxGeometry>
        </mxCell>
        <mxCell id="MBzvzFQcyCSPUHUW8U1s-23" value="Ajouter Modifier Supprimer le compte rendu animaux" style="ellipse;whiteSpace=wrap;html=1;fillColor=#dae8fc;gradientColor=#7ea6e0;strokeColor=#6c8ebf;" vertex="1" parent="1">
          <mxGeometry x="280" y="610" width="170" height="60" as="geometry" />
        </mxCell>
        <mxCell id="MBzvzFQcyCSPUHUW8U1s-24" value="Consulter alimentation animaux" style="ellipse;whiteSpace=wrap;html=1;fillColor=#dae8fc;gradientColor=#7ea6e0;strokeColor=#6c8ebf;" vertex="1" parent="1">
          <mxGeometry x="280" y="680" width="170" height="60" as="geometry" />
        </mxCell>
        <mxCell id="MBzvzFQcyCSPUHUW8U1s-25" value="Ajouter avis sur les habitats animaux" style="ellipse;whiteSpace=wrap;html=1;fillColor=#dae8fc;gradientColor=#7ea6e0;strokeColor=#6c8ebf;" vertex="1" parent="1">
          <mxGeometry x="280" y="750" width="170" height="60" as="geometry" />
        </mxCell>
        <mxCell id="MBzvzFQcyCSPUHUW8U1s-26" value="Consulter le compte rendu véto" style="ellipse;whiteSpace=wrap;html=1;fillColor=#d5e8d4;strokeColor=#82b366;gradientColor=#97d077;" vertex="1" parent="1">
          <mxGeometry x="300" y="510" width="170" height="60" as="geometry" />
        </mxCell>
        <mxCell id="MBzvzFQcyCSPUHUW8U1s-27" value="" style="endArrow=none;html=1;rounded=0;exitX=1;exitY=0.3333333333333333;exitDx=0;exitDy=0;exitPerimeter=0;entryX=0;entryY=0.5;entryDx=0;entryDy=0;" edge="1" parent="1" target="MBzvzFQcyCSPUHUW8U1s-26">
          <mxGeometry width="50" height="50" relative="1" as="geometry">
            <mxPoint x="130" y="297" as="sourcePoint" />
            <mxPoint x="310" y="480" as="targetPoint" />
          </mxGeometry>
        </mxCell>
        <mxCell id="MBzvzFQcyCSPUHUW8U1s-28" value="" style="endArrow=none;html=1;rounded=0;exitX=1;exitY=0.3333333333333333;exitDx=0;exitDy=0;exitPerimeter=0;entryX=0;entryY=0.5;entryDx=0;entryDy=0;" edge="1" parent="1" source="MBzvzFQcyCSPUHUW8U1s-4" target="MBzvzFQcyCSPUHUW8U1s-23">
          <mxGeometry width="50" height="50" relative="1" as="geometry">
            <mxPoint x="350" y="770" as="sourcePoint" />
            <mxPoint x="400" y="720" as="targetPoint" />
          </mxGeometry>
        </mxCell>
        <mxCell id="MBzvzFQcyCSPUHUW8U1s-29" value="" style="endArrow=none;html=1;rounded=0;exitX=1;exitY=0.3333333333333333;exitDx=0;exitDy=0;exitPerimeter=0;entryX=0;entryY=0.5;entryDx=0;entryDy=0;" edge="1" parent="1" source="MBzvzFQcyCSPUHUW8U1s-4" target="MBzvzFQcyCSPUHUW8U1s-24">
          <mxGeometry width="50" height="50" relative="1" as="geometry">
            <mxPoint x="140" y="677" as="sourcePoint" />
            <mxPoint x="290" y="650" as="targetPoint" />
          </mxGeometry>
        </mxCell>
        <mxCell id="MBzvzFQcyCSPUHUW8U1s-30" value="" style="endArrow=none;html=1;rounded=0;exitX=1;exitY=0.3333333333333333;exitDx=0;exitDy=0;exitPerimeter=0;entryX=0;entryY=0.5;entryDx=0;entryDy=0;" edge="1" parent="1" source="MBzvzFQcyCSPUHUW8U1s-4" target="MBzvzFQcyCSPUHUW8U1s-25">
          <mxGeometry width="50" height="50" relative="1" as="geometry">
            <mxPoint x="150" y="687" as="sourcePoint" />
            <mxPoint x="300" y="660" as="targetPoint" />
          </mxGeometry>
        </mxCell>
        <mxCell id="MBzvzFQcyCSPUHUW8U1s-31" value="&lt;font style=&quot;font-size: 20px;&quot;&gt;Connexion&lt;/font&gt;" style="ellipse;whiteSpace=wrap;html=1;fillColor=#f8cecc;gradientColor=#ea6b66;strokeColor=#b85450;" vertex="1" parent="1">
          <mxGeometry x="510" y="585" width="120" height="60" as="geometry" />
        </mxCell>
      </root>
    </mxGraphModel>
  </diagram>
</mxfile>
